<svg version="1.1" id="Layer_1" xmlns="http://www.w3.org/2000/svg" xmlns:xlink="http://www.w3.org/1999/xlink" x="0px" y="0px"
	 width="100%" viewBox="0 0 1024 1024" enable-background="new 0 0 1024 1024" xml:space="preserve">
<path fill="#040409" opacity="1.000000" stroke="none" 
	d="
M0.999994,940.000000 
	C1.000000,627.035706 1.000000,314.071442 1.000000,1.053590 
	C342.258606,1.053590 683.517273,1.053590 1024.887939,1.053590 
	C1024.887939,342.219666 1024.887939,683.439331 1024.887939,1025.000000 
	C805.972107,1025.000000 586.943970,1025.000000 367.170441,1024.635742 
	C366.767822,1021.639709 367.093170,1019.005615 367.456451,1016.376831 
	C369.407440,1002.257629 371.367859,988.139648 373.530762,973.637451 
	C374.365143,968.867798 374.993835,964.481934 375.792908,959.769287 
	C376.603577,955.628845 377.243835,951.815125 378.031799,947.634705 
	C378.277191,946.228210 378.374878,945.188354 378.607117,943.796997 
	C381.672913,926.280884 384.555054,909.107727 387.549500,891.954102 
	C390.400024,875.625000 393.367767,859.316345 396.467407,842.727600 
	C396.675690,842.024109 396.700500,841.591675 396.918701,840.855469 
	C398.056061,835.701294 399.000092,830.851013 400.091492,825.640503 
	C401.336243,819.908630 402.433624,814.536926 403.661560,808.915710 
	C403.828949,808.111084 403.865784,807.555969 404.061554,806.642090 
	C404.499664,804.195557 404.778809,802.107788 405.235657,799.699951 
	C406.033936,796.962524 406.707520,794.557373 407.266754,792.125977 
	C411.959778,771.720764 416.451141,751.267090 421.375214,730.917908 
	C424.535980,717.855713 428.061249,704.866943 431.897980,691.986755 
	C436.746857,675.708923 441.994385,659.547668 447.225220,643.386353 
	C452.855988,625.989441 458.307129,608.521545 464.488495,591.318787 
	C472.421234,569.242126 480.336029,547.116821 489.460815,525.520386 
	C503.635620,491.971680 518.117249,458.513702 533.806946,425.656250 
	C546.411682,399.259338 560.769104,373.683411 574.804565,347.992188 
	C582.052429,334.725494 590.292358,322.000854 598.368896,308.849609 
	C599.892700,306.165192 601.131714,303.662506 602.702271,301.185364 
	C604.023254,299.807495 605.012817,298.404175 606.281860,296.814392 
	C617.433960,281.256439 628.306519,265.884949 639.465332,250.318222 
	C646.407593,242.127106 652.893005,233.981354 659.758118,226.169327 
	C670.992432,213.385498 682.473816,200.818787 694.136841,188.057129 
	C699.365906,183.240295 704.309082,178.526855 709.252258,173.813400 
	C708.913391,173.418640 708.574585,173.023865 708.235718,172.629105 
	C701.411072,178.035477 694.586365,183.441849 687.482056,189.020004 
	C675.200989,200.459396 663.199585,211.727020 650.861328,223.079880 
	C649.619080,223.894562 648.648804,224.557236 647.817688,225.363449 
	C633.493103,239.259186 619.316956,253.310928 604.845215,267.051422 
	C579.669006,290.955475 557.110413,317.176758 536.121643,344.741730 
	C509.069366,380.269928 483.881317,417.107300 460.755066,455.317078 
	C444.211792,482.650299 427.665253,509.991913 411.753082,537.693298 
	C399.324860,559.329529 387.756439,581.464294 376.019592,603.491394 
	C367.566833,619.355103 359.295135,635.320862 351.255371,651.397522 
	C343.021271,667.862793 335.162933,684.516113 327.149628,701.091614 
	C320.867279,714.086731 314.356659,726.978455 308.384766,740.114868 
	C300.493927,757.472290 292.935944,774.983337 285.405457,792.501709 
	C274.734161,817.326721 263.961548,842.113220 253.709305,867.111755 
	C243.654861,891.628113 234.197327,916.389282 224.284088,941.385254 
	C217.618835,958.944336 211.125702,976.152954 204.683838,993.380798 
	C200.748505,1003.905273 196.891953,1014.459290 193.000000,1025.000000 
	C151.305298,1025.000000 109.610603,1025.000000 67.208870,1024.684326 
	C77.827263,1000.518799 88.985016,976.587646 100.527222,952.843262 
	C111.186508,930.915161 122.257957,909.187439 133.407516,887.134155 
	C136.401260,881.763367 139.130081,876.627014 141.870316,871.496765 
	C157.845474,841.588196 173.676147,811.601196 189.864227,781.808411 
	C197.597397,767.576111 206.021500,753.719604 214.112076,739.681030 
	C220.697418,728.254211 227.052490,716.689026 233.870193,705.403076 
	C242.685181,690.810913 251.858688,676.435303 261.139954,661.748047 
	C264.000366,657.170349 266.598663,652.811096 269.467682,648.232910 
	C272.735199,643.057434 275.547913,637.977844 278.762177,633.166443 
	C289.823639,616.609009 300.851379,600.024353 312.213867,583.673828 
	C330.132904,557.888428 348.124878,532.149414 366.443146,506.647278 
	C380.591644,486.950134 395.196411,467.577637 409.775848,448.194336 
	C418.053864,437.188721 426.688904,426.451630 435.448242,415.389038 
	C442.528839,406.802307 449.324371,398.420166 456.375366,389.906982 
	C457.082306,389.171997 457.533783,388.568054 458.289551,387.827454 
	C462.094818,383.772675 465.555786,379.818024 469.104187,375.943359 
	C480.099548,363.937073 490.855743,351.695953 502.210083,340.038147 
	C517.723145,324.110504 533.414124,308.332397 549.560181,293.051697 
	C565.939026,277.550629 582.955139,262.722443 599.710999,247.620575 
	C605.470520,242.429611 611.287231,237.302063 617.405457,232.027039 
	C627.122742,224.508438 636.512390,217.108353 646.068604,209.600235 
	C646.446411,209.329697 646.631104,209.141312 647.137085,208.877808 
	C650.975098,206.203049 654.465393,203.577560 658.272156,200.870056 
	C660.441040,199.287552 662.293396,197.787064 664.501099,196.216583 
	C668.392639,193.826370 671.928894,191.506149 675.465149,189.185928 
	C675.191467,188.777908 674.917786,188.369873 674.644104,187.961838 
	C671.036133,190.135956 667.428101,192.310074 663.479980,194.579163 
	C661.108704,196.017868 659.077454,197.361588 656.696777,198.808960 
	C655.205322,199.570465 654.007568,200.148132 652.929993,200.898407 
	C639.953918,209.932449 626.995605,218.992065 613.690186,228.074097 
	C612.238464,229.094818 611.194336,230.172760 610.010437,231.065247 
	C589.361084,246.631836 568.280884,261.661652 548.145569,277.865936 
	C527.092285,294.808990 506.657715,312.555786 486.487885,330.551086 
	C469.295197,345.890198 452.743408,361.957397 436.140167,377.943573 
	C427.077576,386.669342 418.497101,395.895874 409.399353,405.024750 
	C399.380005,415.414124 389.471802,425.504364 379.984344,435.975800 
	C365.046356,452.463104 350.356537,469.176025 335.627686,485.851776 
	C323.547791,499.528442 311.370422,513.126343 299.592010,527.059875 
	C287.736908,541.084045 276.290802,555.455017 264.721527,569.719482 
	C254.692184,582.085266 244.741165,594.514526 234.496887,607.080933 
	C233.699173,608.104858 233.160110,608.963684 232.352661,610.005737 
	C228.015610,615.440063 223.946960,620.691101 219.578949,626.089905 
	C200.455261,651.356323 181.467834,676.354919 162.857407,701.631042 
	C147.500656,722.488159 132.387054,743.531860 117.542900,764.756653 
	C104.596970,783.267273 92.072952,802.076477 79.553139,820.880676 
	C64.921608,842.856689 50.352264,864.876892 36.028835,887.054199 
	C24.936346,904.228882 14.276436,921.682922 3.350681,938.966187 
	C2.971351,939.566284 1.801437,939.666687 0.999994,940.000000 
z"/>
<path fill="#CA01B5" opacity="1.000000" stroke="none" 
	d="
M133.147873,887.371460 
	C122.257957,909.187439 111.186508,930.915161 100.527222,952.843262 
	C88.985016,976.587646 77.827263,1000.518799 66.750916,1024.684326 
	C45.063923,1025.000000 23.127850,1025.000000 1.000000,1025.000000 
	C1.000000,996.979370 1.000000,968.958374 0.999994,940.468628 
	C1.801437,939.666687 2.971351,939.566284 3.350681,938.966187 
	C14.276436,921.682922 24.936346,904.228882 36.028835,887.054199 
	C50.352264,864.876892 64.921608,842.856689 79.553139,820.880676 
	C92.072952,802.076477 104.596970,783.267273 117.542900,764.756653 
	C132.387054,743.531860 147.500656,722.488159 162.857407,701.631042 
	C181.467834,676.354919 200.455261,651.356323 219.821869,626.273926 
	C220.002151,628.038208 219.381149,629.761292 219.348175,631.495667 
	C219.312500,633.372864 219.825409,635.260620 220.099060,637.143738 
	C221.187592,636.982605 222.807693,637.205627 223.257660,636.583069 
	C224.303040,635.136414 224.932922,633.325378 225.443634,631.577942 
	C225.812958,630.314331 225.288803,628.022949 225.904999,627.725159 
	C229.352722,626.059082 231.092316,623.372742 232.089203,619.848755 
	C232.308304,619.074280 233.536346,618.078857 234.324448,618.056519 
	C238.447891,617.939575 242.145630,617.448853 244.017410,612.920654 
	C244.202530,612.472839 246.785843,612.680359 248.088409,613.101807 
	C250.629669,613.924072 252.402390,613.632812 252.928848,610.732605 
	C253.408966,608.087769 254.740677,607.279419 257.486542,607.545166 
	C262.238617,608.004883 263.366852,606.558350 261.820007,602.184021 
	C258.161560,591.838379 266.131592,584.952576 275.918793,584.653870 
	C279.523315,584.543823 281.558838,583.508728 282.962067,580.497803 
	C284.040436,578.183960 285.136810,575.878540 286.219818,573.580750 
	C291.809906,576.124756 291.245209,580.641296 291.513367,584.908630 
	C291.805328,589.554565 290.552612,590.909485 285.942535,590.755859 
	C284.595917,590.710999 283.231232,591.208618 281.874847,591.457581 
	C282.360535,592.777405 283.129333,594.069214 283.262970,595.423767 
	C283.446014,597.279175 283.908783,600.022766 282.921234,600.917847 
	C278.836426,604.620117 274.121582,607.619568 269.932220,611.219421 
	C268.788666,612.202087 267.779236,615.479370 268.220398,615.836731 
	C272.603516,619.387024 269.857605,622.752075 268.190735,625.999939 
	C266.022736,630.224182 263.279877,634.163635 261.249878,638.446228 
	C257.966003,645.373962 258.322449,645.758362 266.039062,647.123230 
	C267.135712,647.317139 268.146454,647.996887 269.196960,648.451782 
	C266.598663,652.811096 264.000366,657.170349 260.791138,661.844238 
	C254.185684,664.280090 249.071045,667.510437 245.477386,672.982849 
	C240.774582,680.144226 236.601105,687.863159 230.800812,694.025330 
	C226.411819,698.688171 222.892212,702.762207 223.586380,709.410583 
	C223.660858,710.123962 223.219223,711.263489 222.652313,711.611938 
	C218.503571,714.161743 218.227600,719.034180 215.836487,722.548584 
	C210.292542,730.696960 203.899902,738.263550 198.230957,746.332703 
	C193.854980,752.561401 189.120789,758.801270 186.199127,765.733032 
	C180.478180,779.306152 172.607559,791.515991 164.578232,803.688599 
	C163.045502,806.012329 160.499191,807.701416 159.122513,810.088257 
	C153.523468,819.795959 147.917435,829.519409 142.854843,839.510986 
	C138.373184,848.356018 134.140533,857.389832 130.680145,866.669250 
	C128.080597,873.640259 124.886192,881.384460 133.147873,887.371460 
z"/>
<path fill="#680298" opacity="1.000000" stroke="none" 
	d="
M193.468658,1025.000000 
	C196.891953,1014.459290 200.748505,1003.905273 204.683838,993.380798 
	C211.125702,976.152954 217.618835,958.944336 224.493469,941.759033 
	C225.521851,942.964844 225.922775,944.362854 226.821640,945.264465 
	C228.411774,946.859314 230.304810,948.152100 232.071075,949.571350 
	C233.552094,947.607666 235.578918,945.829895 236.332413,943.618347 
	C236.883423,942.001038 235.690765,939.823364 235.406219,937.876343 
	C235.200470,936.468689 234.789993,934.896057 235.194168,933.627441 
	C237.107468,927.621643 239.408691,921.738586 241.290817,915.723938 
	C242.432495,912.075439 244.022079,910.287415 248.181168,911.671509 
	C249.494690,912.108643 251.678680,911.376648 252.875671,910.433044 
	C255.887390,908.058960 254.417038,905.530945 252.591232,903.058289 
	C251.180176,901.147461 249.125427,899.423279 251.838333,896.638611 
	C254.700043,893.701233 259.004852,890.258362 259.088867,886.945312 
	C259.239075,881.018555 261.183624,876.472046 263.890350,871.554993 
	C266.160126,867.431763 265.729706,861.270996 273.135223,862.425476 
	C273.751617,862.521545 274.569000,861.328491 275.636536,860.452515 
	C271.012939,857.447571 271.390686,853.931030 273.855652,850.073303 
	C274.652252,848.826538 274.997986,847.298401 275.739563,846.007996 
	C276.500153,844.684570 277.532745,842.434326 278.375702,842.466003 
	C280.149170,842.532837 282.055939,843.582825 283.567810,844.692688 
	C284.857574,845.639587 285.671692,847.234375 287.101501,849.059937 
	C290.205048,843.087952 283.145325,841.958191 283.481354,838.120178 
	C283.815857,834.299255 284.556763,830.513977 285.131714,826.630310 
	C285.732666,826.670837 286.230896,826.627930 286.685638,826.748779 
	C288.341522,827.188843 289.982880,827.683533 291.629700,828.157654 
	C291.719635,826.286560 291.654419,824.390747 291.946960,822.551880 
	C292.195831,820.987183 292.403717,818.651245 293.413696,818.104248 
	C297.859528,815.696777 297.358978,812.571045 295.655945,808.816772 
	C292.875549,802.687683 295.290771,793.859314 300.796204,789.642578 
	C300.982880,789.499512 301.427795,789.693665 302.081757,789.768127 
	C302.453156,790.657959 302.695770,791.840759 303.368866,792.677063 
	C304.000549,793.461975 305.087311,793.880615 305.973816,794.460449 
	C306.421478,793.514038 307.276428,792.555176 307.247986,791.623291 
	C307.106506,786.983643 306.574249,782.352356 306.536713,777.715210 
	C306.525391,776.317017 307.660889,774.909485 308.271057,773.506287 
	C308.045868,773.566772 307.820679,773.627258 307.595459,773.687805 
	C307.814484,769.985413 308.033478,766.283020 308.252502,762.580688 
	C308.963898,762.506958 309.675293,762.433228 310.386688,762.359497 
	C311.316254,764.384155 312.245789,766.408813 313.160614,768.401367 
	C314.779785,765.631592 316.339722,763.213257 317.610626,760.651550 
	C318.047638,759.770691 318.235443,758.149353 317.727356,757.521912 
	C315.369934,754.610413 317.007538,752.404907 318.365204,749.805725 
	C320.431732,745.849304 322.057892,741.662781 324.144073,736.958496 
	C330.720367,736.203979 331.715546,734.922791 331.744781,726.843262 
	C331.748108,725.928467 333.378876,724.500000 334.495239,724.198059 
	C339.583099,722.822083 343.178192,719.013794 344.072052,713.543152 
	C344.998352,707.874146 346.934570,706.340271 352.659882,706.528748 
	C353.520325,706.557129 354.399445,706.019104 356.149231,705.464172 
	C354.360626,702.362549 352.845520,699.735168 350.985291,696.509277 
	C351.034607,696.430298 352.194183,695.435425 352.135101,694.519165 
	C351.870453,690.413391 353.880188,689.059692 357.648315,688.563538 
	C358.805176,688.411194 360.080750,686.299744 360.622223,684.834229 
	C362.849304,678.807007 364.792389,672.675293 366.912994,666.607483 
	C367.109619,666.044861 367.750183,665.536926 368.307190,665.216919 
	C372.010040,663.089294 372.586304,660.107056 371.211792,656.251038 
	C370.829010,655.177307 371.496063,653.729309 371.681488,652.453003 
	C372.229401,652.559753 372.777344,652.666504 373.325256,652.773254 
	C373.518951,654.499573 373.712646,656.225891 373.925476,658.122742 
	C378.118408,658.597900 379.120300,655.942139 379.951324,652.918274 
	C381.969727,645.574097 389.262634,643.002075 395.087585,647.468750 
	C395.985931,648.157593 397.132355,648.522888 398.127625,649.414062 
	C397.525238,651.347717 396.984406,652.914856 396.389435,654.461304 
	C389.651031,671.976135 382.904266,689.487793 375.984741,707.316772 
	C374.982117,709.632690 374.054962,711.597473 373.341919,713.637024 
	C363.399963,742.075134 352.952057,770.350891 343.706451,799.014221 
	C332.777283,832.896912 322.694000,867.057983 312.624329,901.210510 
	C305.799683,924.357117 299.530182,947.669678 293.200317,970.959106 
	C288.315521,988.931580 283.722687,1006.983459 279.000000,1025.000000 
	C250.645767,1025.000000 222.291550,1025.000000 193.468658,1025.000000 
z"/>
<path fill="#CA01B4" opacity="1.000000" stroke="none" 
	d="
M279.468689,1025.000000 
	C283.722687,1006.983459 288.315521,988.931580 293.200317,970.959106 
	C299.530182,947.669678 305.799683,924.357117 312.624329,901.210510 
	C322.694000,867.057983 332.777283,832.896912 343.706451,799.014221 
	C352.952057,770.350891 363.399963,742.075134 373.341919,713.637024 
	C374.054962,711.597473 374.982117,709.632690 376.352356,707.354919 
	C380.287720,707.076660 383.680481,707.076660 387.137756,707.076660 
	C385.871490,701.554260 388.187592,697.780945 393.563812,695.699768 
	C396.480194,694.570923 398.772614,693.265259 395.516449,689.620544 
	C394.053070,687.982483 393.710846,685.174072 393.389954,682.824341 
	C393.324615,682.345642 396.446136,680.733521 396.724426,681.012817 
	C399.986847,684.287537 403.187592,684.647339 406.768982,681.621216 
	C406.945862,681.471802 407.800171,682.124146 408.339020,682.403076 
	C408.718384,682.913147 409.097778,683.423157 409.477142,683.933228 
	C408.405029,684.371460 407.115173,684.563538 406.296021,685.287842 
	C400.774597,690.169312 401.033478,693.758301 406.486938,698.513550 
	C407.862061,699.712463 408.841095,702.337830 408.654236,704.170288 
	C408.130646,709.304993 408.567200,715.073792 402.898987,717.610168 
	C405.658478,724.729309 403.507111,731.030579 401.848358,737.371643 
	C401.266693,739.595276 400.499237,741.844604 400.401825,744.107361 
	C400.026001,752.836182 400.344879,761.619934 399.496979,770.294434 
	C398.939850,775.993896 396.825989,781.541260 395.486359,786.851013 
	C396.994598,787.166748 399.027618,787.592407 401.060669,788.018066 
	C400.046844,789.756409 399.029755,791.492859 398.022400,793.234985 
	C397.856476,793.522034 397.723145,793.829407 397.591980,794.134766 
	C394.822021,800.581299 392.035370,807.020691 389.306030,813.484375 
	C388.861786,814.536438 388.243134,815.781250 388.441925,816.792114 
	C389.296509,821.137695 386.750092,823.056946 383.522308,824.992615 
	C381.988831,825.912231 381.082886,827.878235 379.892639,829.370239 
	C380.137054,829.751953 380.381470,830.133728 380.625916,830.515442 
	C386.104248,829.445129 387.093506,832.783264 386.886810,836.612305 
	C386.719177,839.717468 385.869843,842.797913 385.188324,845.859436 
	C384.612244,848.447083 382.831940,851.223633 383.356323,853.510254 
	C384.720093,859.457397 382.423615,864.168640 380.085419,869.193970 
	C379.263672,870.960266 379.016937,874.059021 380.029053,875.406189 
	C382.648773,878.892700 381.192566,881.408203 379.555176,884.466309 
	C378.419525,886.587402 377.658844,889.097046 377.463562,891.492859 
	C377.109802,895.832458 377.949188,899.944519 375.944489,904.494324 
	C373.287170,910.525208 372.365295,917.406189 371.271118,924.016785 
	C370.139221,930.855347 369.733307,937.812317 368.907074,944.705200 
	C368.773743,945.817444 367.948181,946.833618 367.720276,947.950806 
	C367.373322,949.651733 367.017151,951.415649 367.109589,953.128784 
	C367.367767,957.912354 368.259583,962.750244 363.754883,966.357727 
	C363.101776,966.880737 362.641937,968.097473 362.684143,968.964417 
	C362.998230,975.415161 363.598267,981.855164 363.768280,988.307434 
	C363.804352,989.675598 362.790863,991.807922 361.665466,992.348450 
	C355.223297,995.442749 355.162262,995.315674 359.333313,1000.716064 
	C351.320892,1010.956360 350.558990,1014.425476 354.000000,1025.000000 
	C329.312439,1025.000000 304.624878,1025.000000 279.468689,1025.000000 
z"/>
<path fill="#CB00B7" opacity="1.000000" stroke="none" 
	d="
M354.463196,1025.000000 
	C350.558990,1014.425476 351.320892,1010.956360 359.333313,1000.716064 
	C355.162262,995.315674 355.223297,995.442749 361.665466,992.348450 
	C362.790863,991.807922 363.804352,989.675598 363.768280,988.307434 
	C363.598267,981.855164 362.998230,975.415161 362.684143,968.964417 
	C362.641937,968.097473 363.101776,966.880737 363.754883,966.357727 
	C368.259583,962.750244 367.367767,957.912354 367.109589,953.128784 
	C367.017151,951.415649 367.373322,949.651733 367.720276,947.950806 
	C367.948181,946.833618 368.773743,945.817444 368.907074,944.705200 
	C369.733307,937.812317 370.139221,930.855347 371.271118,924.016785 
	C372.365295,917.406189 373.287170,910.525208 375.944489,904.494324 
	C377.949188,899.944519 377.109802,895.832458 377.463562,891.492859 
	C377.658844,889.097046 378.419525,886.587402 379.555176,884.466309 
	C381.192566,881.408203 382.648773,878.892700 380.029053,875.406189 
	C379.016937,874.059021 379.263672,870.960266 380.085419,869.193970 
	C382.423615,864.168640 384.720093,859.457397 383.356323,853.510254 
	C382.831940,851.223633 384.612244,848.447083 385.188324,845.859436 
	C385.869843,842.797913 386.719177,839.717468 386.886810,836.612305 
	C387.093506,832.783264 386.104248,829.445129 380.625916,830.515442 
	C380.381470,830.133728 380.137054,829.751953 379.892639,829.370239 
	C381.082886,827.878235 381.988831,825.912231 383.522308,824.992615 
	C386.750092,823.056946 389.296509,821.137695 388.441925,816.792114 
	C388.243134,815.781250 388.861786,814.536438 389.306030,813.484375 
	C392.035370,807.020691 394.822021,800.581299 397.591980,794.134766 
	C397.723145,793.829407 397.856476,793.522034 398.022400,793.234985 
	C399.029755,791.492859 400.046844,789.756409 401.060669,788.018066 
	C399.027618,787.592407 396.994598,787.166748 395.486359,786.851013 
	C396.825989,781.541260 398.939850,775.993896 399.496979,770.294434 
	C400.344879,761.619934 400.026001,752.836182 400.401825,744.107361 
	C400.499237,741.844604 401.266693,739.595276 401.848358,737.371643 
	C403.507111,731.030579 405.658478,724.729309 402.898987,717.610168 
	C408.567200,715.073792 408.130646,709.304993 408.654236,704.170288 
	C408.841095,702.337830 407.862061,699.712463 406.486938,698.513550 
	C401.033478,693.758301 400.774597,690.169312 406.296021,685.287842 
	C407.115173,684.563538 408.405029,684.371460 409.477142,683.933228 
	C409.097778,683.423157 408.718384,682.913147 408.339020,682.403076 
	C407.800171,682.124146 406.945862,681.471802 406.768982,681.621216 
	C403.187592,684.647339 399.986847,684.287537 396.724426,681.012817 
	C396.446136,680.733521 393.324615,682.345642 393.389954,682.824341 
	C393.710846,685.174072 394.053070,687.982483 395.516449,689.620544 
	C398.772614,693.265259 396.480194,694.570923 393.563812,695.699768 
	C388.187592,697.780945 385.871490,701.554260 387.137756,707.076660 
	C383.680481,707.076660 380.287720,707.076660 376.527344,707.038452 
	C382.904266,689.487793 389.651031,671.976135 396.389435,654.461304 
	C396.984406,652.914856 397.525238,651.347717 398.344482,649.147217 
	C405.774628,631.670471 412.951477,614.836792 420.519989,598.006836 
	C424.757751,597.556519 428.660461,597.353027 432.417206,596.503845 
	C433.627380,596.230164 435.277649,594.211914 435.216187,593.073303 
	C435.158142,591.997803 433.267303,590.679688 431.912170,590.092651 
	C429.661133,589.117371 427.193512,588.641907 424.878601,587.588135 
	C426.621948,583.479553 428.303802,579.738770 430.316528,576.127563 
	C435.703308,581.642639 438.487793,572.343872 443.070892,574.294739 
	C443.445923,574.454346 444.551086,573.867493 444.683472,573.434021 
	C444.994049,572.417236 445.400146,570.959778 444.922119,570.250244 
	C442.333435,566.408264 445.235504,564.564880 447.099121,561.746094 
	C450.487000,556.621826 453.317780,551.034058 455.626495,545.334045 
	C456.682495,542.726868 455.386169,539.797424 451.969757,538.684204 
	C450.763428,538.291016 449.755829,537.288086 448.719238,536.207397 
	C450.857452,531.503662 452.784515,527.077087 455.034546,522.821167 
	C470.585632,493.406281 485.904663,463.863159 501.877655,434.678345 
	C521.221375,399.334808 542.208191,364.978821 566.265686,332.588440 
	C574.391602,321.647980 582.642273,310.800232 591.134521,300.109680 
	C593.650208,303.216614 595.867126,306.123962 598.084045,309.031311 
	C590.292358,322.000854 582.052429,334.725494 574.804565,347.992188 
	C560.769104,373.683411 546.411682,399.259338 533.806946,425.656250 
	C518.117249,458.513702 503.635620,491.971680 489.460815,525.520386 
	C480.336029,547.116821 472.421234,569.242126 464.488495,591.318787 
	C458.307129,608.521545 452.855988,625.989441 447.225220,643.386353 
	C441.994385,659.547668 436.746857,675.708923 431.897980,691.986755 
	C428.061249,704.866943 424.535980,717.855713 421.375214,730.917908 
	C416.451141,751.267090 411.959778,771.720764 407.266754,792.125977 
	C406.707520,794.557373 406.033936,796.962524 404.884094,799.782410 
	C400.064880,802.804321 399.982361,804.047974 403.902588,807.000854 
	C403.865784,807.555969 403.828949,808.111084 403.258667,808.898560 
	C401.436249,809.633911 399.186340,809.922607 399.018372,810.675659 
	C398.104370,814.773743 397.524017,818.975281 397.270599,823.167969 
	C397.216980,824.055115 399.004730,825.053528 399.944092,826.000671 
	C399.000092,830.851013 398.056061,835.701294 396.656311,840.888916 
	C396.228394,841.816956 396.256165,842.407837 396.283936,842.998657 
	C393.367767,859.316345 390.400024,875.625000 387.549500,891.954102 
	C384.555054,909.107727 381.672913,926.280884 378.247620,943.817444 
	C376.986328,944.835938 376.219147,945.482544 375.451965,946.129150 
	C376.262634,946.753235 377.073334,947.377319 377.884064,948.001465 
	C377.243835,951.815125 376.603577,955.628845 375.409424,959.824585 
	C368.531708,963.618774 367.775024,970.448669 373.325012,974.021301 
	C371.367859,988.139648 369.407440,1002.257629 367.456451,1016.376831 
	C367.093170,1019.005615 366.767822,1021.639709 366.712494,1024.635742 
	C362.975464,1025.000000 358.950897,1025.000000 354.463196,1025.000000 
M407.893768,643.645447 
	C409.236786,646.152222 410.579803,648.658936 411.629639,650.618530 
	C414.365234,649.113098 416.784943,648.145386 418.730774,646.586304 
	C420.095856,645.492615 421.649872,643.593445 421.651459,642.052429 
	C421.654938,638.661133 421.145599,635.129333 420.069153,631.914856 
	C418.904205,628.436218 420.128387,627.576965 423.216705,626.885315 
	C424.776550,626.535950 426.036774,624.848694 427.432434,623.766296 
	C425.758759,622.970581 424.141846,621.981750 422.385956,621.465881 
	C421.584015,621.230286 420.496887,621.893677 419.558136,622.206360 
	C409.411713,625.586670 409.941589,635.115417 407.893768,643.645447 
M436.649353,616.101562 
	C437.674103,615.353760 438.698883,614.605896 440.165741,613.535461 
	C436.042664,612.271973 432.948822,611.019714 429.738647,610.530029 
	C428.805176,610.387573 426.534027,612.521851 426.622894,613.444214 
	C426.847107,615.771790 428.065277,618.003540 428.885162,620.273682 
	C430.550995,619.413330 432.228027,618.573730 433.877502,617.683044 
	C434.604095,617.290710 435.274780,616.794678 436.649353,616.101562 
M446.993500,585.346008 
	C447.668549,584.295288 449.159576,582.770325 448.873505,582.278137 
	C447.795380,580.423279 446.139099,578.904419 444.699310,577.259766 
	C444.242676,577.599731 443.786041,577.939636 443.329376,578.279602 
	C443.169312,581.056335 442.474823,584.018921 446.993500,585.346008 
M415.167389,654.410034 
	C415.453339,654.331421 415.739288,654.252808 416.025208,654.174194 
	C415.854095,653.945374 415.683014,653.716614 415.511902,653.487793 
	C415.327789,653.708130 415.143677,653.928467 415.167389,654.410034 
M416.850006,659.961609 
	C416.758301,660.242493 416.666626,660.523438 416.574921,660.804321 
	C416.852966,660.815063 417.131042,660.825806 417.409088,660.836548 
	C417.332123,660.549622 417.255127,660.262634 416.850006,659.961609 
M406.065979,677.868347 
	C405.852234,678.024414 405.638519,678.180542 405.424774,678.336609 
	C405.615112,678.501953 405.805450,678.667236 405.995758,678.832581 
	C406.092651,678.578369 406.189545,678.324158 406.065979,677.868347 
z"/>
<path fill="#6A019A" opacity="1.000000" stroke="none" 
	d="
M590.835815,299.910095 
	C582.642273,310.800232 574.391602,321.647980 566.265686,332.588440 
	C542.208191,364.978821 521.221375,399.334808 501.877655,434.678345 
	C485.904663,463.863159 470.585632,493.406281 455.034546,522.821167 
	C452.784515,527.077087 450.857452,531.503662 448.484161,536.460571 
	C443.776245,546.105408 439.302246,555.111023 434.983734,564.190552 
	C433.149750,568.046448 431.641785,572.057495 429.985657,575.997986 
	C428.303802,579.738770 426.621948,583.479553 424.672485,587.854980 
	C422.979340,591.660767 421.553833,594.831970 420.128296,598.003113 
	C412.951477,614.836792 405.774628,631.670471 398.380920,648.770996 
	C397.132355,648.522888 395.985931,648.157593 395.087585,647.468750 
	C389.262634,643.002075 381.969727,645.574097 379.951324,652.918274 
	C379.120300,655.942139 378.118408,658.597900 373.925476,658.122742 
	C373.712646,656.225891 373.518951,654.499573 373.325256,652.773254 
	C372.777344,652.666504 372.229401,652.559753 371.681488,652.453003 
	C371.496063,653.729309 370.829010,655.177307 371.211792,656.251038 
	C372.586304,660.107056 372.010040,663.089294 368.307190,665.216919 
	C367.750183,665.536926 367.109619,666.044861 366.912994,666.607483 
	C364.792389,672.675293 362.849304,678.807007 360.622223,684.834229 
	C360.080750,686.299744 358.805176,688.411194 357.648315,688.563538 
	C353.880188,689.059692 351.870453,690.413391 352.135101,694.519165 
	C352.194183,695.435425 351.034607,696.430298 350.985291,696.509277 
	C352.845520,699.735168 354.360626,702.362549 356.149231,705.464172 
	C354.399445,706.019104 353.520325,706.557129 352.659882,706.528748 
	C346.934570,706.340271 344.998352,707.874146 344.072052,713.543152 
	C343.178192,719.013794 339.583099,722.822083 334.495239,724.198059 
	C333.378876,724.500000 331.748108,725.928467 331.744781,726.843262 
	C331.715546,734.922791 330.720367,736.203979 324.144073,736.958496 
	C322.057892,741.662781 320.431732,745.849304 318.365204,749.805725 
	C317.007538,752.404907 315.369934,754.610413 317.727356,757.521912 
	C318.235443,758.149353 318.047638,759.770691 317.610626,760.651550 
	C316.339722,763.213257 314.779785,765.631592 313.160614,768.401367 
	C312.245789,766.408813 311.316254,764.384155 310.386688,762.359497 
	C309.675293,762.433228 308.963898,762.506958 308.252502,762.580688 
	C308.033478,766.283020 307.814484,769.985413 307.595459,773.687805 
	C307.820679,773.627258 308.045868,773.566772 308.271057,773.506287 
	C307.660889,774.909485 306.525391,776.317017 306.536713,777.715210 
	C306.574249,782.352356 307.106506,786.983643 307.247986,791.623291 
	C307.276428,792.555176 306.421478,793.514038 305.973816,794.460449 
	C305.087311,793.880615 304.000549,793.461975 303.368866,792.677063 
	C302.695770,791.840759 302.453156,790.657959 302.081757,789.768127 
	C301.427795,789.693665 300.982880,789.499512 300.796204,789.642578 
	C295.290771,793.859314 292.875549,802.687683 295.655945,808.816772 
	C297.358978,812.571045 297.859528,815.696777 293.413696,818.104248 
	C292.403717,818.651245 292.195831,820.987183 291.946960,822.551880 
	C291.654419,824.390747 291.719635,826.286560 291.629700,828.157654 
	C289.982880,827.683533 288.341522,827.188843 286.685638,826.748779 
	C286.230896,826.627930 285.732666,826.670837 285.131714,826.630310 
	C284.556763,830.513977 283.815857,834.299255 283.481354,838.120178 
	C283.145325,841.958191 290.205048,843.087952 287.101501,849.059937 
	C285.671692,847.234375 284.857574,845.639587 283.567810,844.692688 
	C282.055939,843.582825 280.149170,842.532837 278.375702,842.466003 
	C277.532745,842.434326 276.500153,844.684570 275.739563,846.007996 
	C274.997986,847.298401 274.652252,848.826538 273.855652,850.073303 
	C271.390686,853.931030 271.012939,857.447571 275.636536,860.452515 
	C274.569000,861.328491 273.751617,862.521545 273.135223,862.425476 
	C265.729706,861.270996 266.160126,867.431763 263.890350,871.554993 
	C261.183624,876.472046 259.239075,881.018555 259.088867,886.945312 
	C259.004852,890.258362 254.700043,893.701233 251.838333,896.638611 
	C249.125427,899.423279 251.180176,901.147461 252.591232,903.058289 
	C254.417038,905.530945 255.887390,908.058960 252.875671,910.433044 
	C251.678680,911.376648 249.494690,912.108643 248.181168,911.671509 
	C244.022079,910.287415 242.432495,912.075439 241.290817,915.723938 
	C239.408691,921.738586 237.107468,927.621643 235.194168,933.627441 
	C234.789993,934.896057 235.200470,936.468689 235.406219,937.876343 
	C235.690765,939.823364 236.883423,942.001038 236.332413,943.618347 
	C235.578918,945.829895 233.552094,947.607666 232.071075,949.571350 
	C230.304810,948.152100 228.411774,946.859314 226.821640,945.264465 
	C225.922775,944.362854 225.521851,942.964844 224.687225,941.416687 
	C234.197327,916.389282 243.654861,891.628113 253.709305,867.111755 
	C263.961548,842.113220 274.734161,817.326721 285.405457,792.501709 
	C292.935944,774.983337 300.493927,757.472290 308.384766,740.114868 
	C314.356659,726.978455 320.867279,714.086731 327.149628,701.091614 
	C335.162933,684.516113 343.021271,667.862793 351.255371,651.397522 
	C359.295135,635.320862 367.566833,619.355103 376.019592,603.491394 
	C387.756439,581.464294 399.324860,559.329529 411.753082,537.693298 
	C427.665253,509.991913 444.211792,482.650299 460.755066,455.317078 
	C483.881317,417.107300 509.069366,380.269928 536.121643,344.741730 
	C557.110413,317.176758 579.669006,290.955475 604.845215,267.051422 
	C619.316956,253.310928 633.493103,239.259186 647.817688,225.363449 
	C648.648804,224.557236 649.619080,223.894562 650.873779,223.475677 
	C649.633545,226.786026 648.312073,229.971069 646.395264,232.744598 
	C643.047241,237.588913 639.332886,242.180084 635.507629,247.075714 
	C633.928467,248.757599 632.580505,250.213150 631.304504,251.729279 
	C624.792725,259.466553 618.302368,267.221954 611.798950,274.966339 
	C604.814453,283.283630 597.823792,291.595734 590.835815,299.910095 
z"/>
<path fill="#CB00B7" opacity="1.000000" stroke="none" 
	d="
M269.467712,648.232910 
	C268.146454,647.996887 267.135712,647.317139 266.039062,647.123230 
	C258.322449,645.758362 257.966003,645.373962 261.249878,638.446228 
	C263.279877,634.163635 266.022736,630.224182 268.190735,625.999939 
	C269.857605,622.752075 272.603516,619.387024 268.220398,615.836731 
	C267.779236,615.479370 268.788666,612.202087 269.932220,611.219421 
	C274.121582,607.619568 278.836426,604.620117 282.921234,600.917847 
	C283.908783,600.022766 283.446014,597.279175 283.262970,595.423767 
	C283.129333,594.069214 282.360535,592.777405 281.874847,591.457581 
	C283.231232,591.208618 284.595917,590.710999 285.942535,590.755859 
	C290.552612,590.909485 291.805328,589.554565 291.513367,584.908630 
	C291.245209,580.641296 291.809906,576.124756 286.219818,573.580750 
	C285.136810,575.878540 284.040436,578.183960 282.962067,580.497803 
	C281.558838,583.508728 279.523315,584.543823 275.918793,584.653870 
	C266.131592,584.952576 258.161560,591.838379 261.820007,602.184021 
	C263.366852,606.558350 262.238617,608.004883 257.486542,607.545166 
	C254.740677,607.279419 253.408966,608.087769 252.928848,610.732605 
	C252.402390,613.632812 250.629669,613.924072 248.088409,613.101807 
	C246.785843,612.680359 244.202530,612.472839 244.017410,612.920654 
	C242.145630,617.448853 238.447891,617.939575 234.324448,618.056519 
	C233.536346,618.078857 232.308304,619.074280 232.089203,619.848755 
	C231.092316,623.372742 229.352722,626.059082 225.904999,627.725159 
	C225.288803,628.022949 225.812958,630.314331 225.443634,631.577942 
	C224.932922,633.325378 224.303040,635.136414 223.257660,636.583069 
	C222.807693,637.205627 221.187592,636.982605 220.099060,637.143738 
	C219.825409,635.260620 219.312500,633.372864 219.348175,631.495667 
	C219.381149,629.761292 220.002151,628.038208 220.121246,626.126099 
	C223.946960,620.691101 228.015610,615.440063 232.678314,610.143066 
	C234.568771,609.876770 235.865143,609.656433 237.161530,609.436035 
	C236.359528,608.595947 235.557510,607.755798 234.755524,606.915710 
	C244.741165,594.514526 254.692184,582.085266 264.721527,569.719482 
	C276.290802,555.455017 287.736908,541.084045 299.592010,527.059875 
	C311.370422,513.126343 323.547791,499.528442 335.627686,485.851776 
	C350.356537,469.176025 365.046356,452.463104 379.984344,435.975800 
	C389.471802,425.504364 399.380005,415.414124 409.789673,405.111450 
	C411.350067,407.503845 412.054230,410.016022 413.150818,412.343323 
	C413.845398,413.817413 415.124634,415.016022 416.141663,416.338165 
	C417.392029,415.038422 419.382568,413.909485 419.730499,412.401520 
	C420.351349,409.710358 420.047089,406.789459 420.007538,403.966339 
	C419.956512,400.330963 421.850067,398.482117 425.258728,399.120911 
	C430.009247,400.011200 434.651123,401.481079 438.108246,402.382019 
	C437.002563,407.342010 436.082855,411.467804 435.163147,415.593628 
	C426.688904,426.451630 418.053864,437.188721 409.775848,448.194336 
	C395.196411,467.577637 380.591644,486.950134 366.443146,506.647278 
	C348.124878,532.149414 330.132904,557.888428 312.213867,583.673828 
	C300.851379,600.024353 289.823639,616.609009 278.762177,633.166443 
	C275.547913,637.977844 272.735199,643.057434 269.467712,648.232910 
M298.223083,568.185852 
	C297.641937,568.439697 297.060822,568.693604 296.479706,568.947510 
	C296.708801,569.301697 296.937897,569.655945 297.167023,570.010132 
	C297.550262,569.549438 297.933533,569.088745 298.223083,568.185852 
M297.128540,573.786438 
	C297.014343,573.848633 296.900177,573.910889 296.785980,573.973083 
	C296.870178,574.067566 296.954346,574.162048 297.038513,574.256531 
	C297.111725,574.148376 297.184937,574.040222 297.128540,573.786438 
z"/>
<path fill="#CF00BC" opacity="1.000000" stroke="none" 
	d="
M435.448242,415.389038 
	C436.082855,411.467804 437.002563,407.342010 438.108246,402.382019 
	C434.651123,401.481079 430.009247,400.011200 425.258728,399.120911 
	C421.850067,398.482117 419.956512,400.330963 420.007538,403.966339 
	C420.047089,406.789459 420.351349,409.710358 419.730499,412.401520 
	C419.382568,413.909485 417.392029,415.038422 416.141663,416.338165 
	C415.124634,415.016022 413.845398,413.817413 413.150818,412.343323 
	C412.054230,410.016022 411.350067,407.503845 410.089478,404.983215 
	C418.497101,395.895874 427.077576,386.669342 436.140167,377.943573 
	C452.743408,361.957397 469.295197,345.890198 486.487885,330.551086 
	C506.657715,312.555786 527.092285,294.808990 548.145569,277.865936 
	C568.280884,261.661652 589.361084,246.631836 610.010437,231.065247 
	C611.194336,230.172760 612.238464,229.094818 613.927979,228.296844 
	C615.364868,229.708862 616.221313,230.927200 617.077759,232.145538 
	C611.287231,237.302063 605.470520,242.429611 599.710999,247.620575 
	C582.955139,262.722443 565.939026,277.550629 549.560181,293.051697 
	C533.414124,308.332397 517.723145,324.110504 502.210083,340.038147 
	C490.855743,351.695953 480.099548,363.937073 469.104187,375.943359 
	C465.555786,379.818024 462.094818,383.772675 457.998230,387.660065 
	C456.193359,387.861206 454.984131,388.093048 453.774872,388.324890 
	C454.556549,388.895966 455.338226,389.467010 456.119904,390.038055 
	C449.324371,398.420166 442.528839,406.802307 435.448242,415.389038 
z"/>
<path fill="#CF00BC" opacity="1.000000" stroke="none" 
	d="
M133.407516,887.134155 
	C124.886192,881.384460 128.080597,873.640259 130.680145,866.669250 
	C134.140533,857.389832 138.373184,848.356018 142.854843,839.510986 
	C147.917435,829.519409 153.523468,819.795959 159.122513,810.088257 
	C160.499191,807.701416 163.045502,806.012329 164.578232,803.688599 
	C172.607559,791.515991 180.478180,779.306152 186.199127,765.733032 
	C189.120789,758.801270 193.854980,752.561401 198.230957,746.332703 
	C203.899902,738.263550 210.292542,730.696960 215.836487,722.548584 
	C218.227600,719.034180 218.503571,714.161743 222.652313,711.611938 
	C223.219223,711.263489 223.660858,710.123962 223.586380,709.410583 
	C222.892212,702.762207 226.411819,698.688171 230.800812,694.025330 
	C236.601105,687.863159 240.774582,680.144226 245.477386,672.982849 
	C249.071045,667.510437 254.185684,664.280090 260.529053,662.062622 
	C251.858688,676.435303 242.685181,690.810913 233.870193,705.403076 
	C227.052490,716.689026 220.697418,728.254211 214.112076,739.681030 
	C206.021500,753.719604 197.597397,767.576111 189.864227,781.808411 
	C173.676147,811.601196 157.845474,841.588196 141.870316,871.496765 
	C139.130081,876.627014 136.401260,881.763367 133.407516,887.134155 
z"/>
<path fill="#CF00BC" opacity="1.000000" stroke="none" 
	d="
M591.134521,300.109680 
	C597.823792,291.595734 604.814453,283.283630 611.798950,274.966339 
	C618.302368,267.221954 624.792725,259.466553 631.304504,251.729279 
	C632.580505,250.213150 633.928467,248.757599 635.891357,247.168457 
	C637.419312,248.213013 638.299194,249.363251 639.179077,250.513489 
	C628.306519,265.884949 617.433960,281.256439 605.909790,296.731079 
	C601.274963,295.712433 597.792175,295.594025 596.696899,301.159851 
	C598.805115,301.159851 600.587952,301.159851 602.370789,301.159851 
	C601.131714,303.662506 599.892700,306.165192 598.368896,308.849609 
	C595.867126,306.123962 593.650208,303.216614 591.134521,300.109680 
z"/>
<path fill="#CA01B5" opacity="1.000000" stroke="none" 
	d="
M639.465332,250.318222 
	C638.299194,249.363251 637.419312,248.213013 636.155762,246.970062 
	C639.332886,242.180084 643.047241,237.588913 646.395264,232.744598 
	C648.312073,229.971069 649.633545,226.786026 651.210571,223.390442 
	C663.199585,211.727020 675.200989,200.459396 687.919434,188.994843 
	C690.374573,188.585449 692.112793,188.372971 693.851013,188.160492 
	C682.473816,200.818787 670.992432,213.385498 659.758118,226.169327 
	C652.893005,233.981354 646.407593,242.127106 639.465332,250.318222 
z"/>
<path fill="#CA01B5" opacity="1.000000" stroke="none" 
	d="
M617.405457,232.027023 
	C616.221313,230.927200 615.364868,229.708862 614.270569,228.267776 
	C626.995605,218.992065 639.953918,209.932449 652.929993,200.898407 
	C654.007568,200.148132 655.205322,199.570465 656.733948,199.115509 
	C657.398926,199.862946 657.677307,200.407501 657.955688,200.952057 
	C654.465393,203.577560 650.975098,206.203049 646.911255,208.893890 
	C646.030701,209.114761 645.885498,209.364441 645.901978,209.708282 
	C636.512390,217.108353 627.122742,224.508438 617.405457,232.027023 
z"/>
<path fill="#6A019A" opacity="1.000000" stroke="none" 
	d="
M694.136841,188.057129 
	C692.112793,188.372971 690.374573,188.585449 688.199036,188.823059 
	C694.586365,183.441849 701.411072,178.035477 708.235718,172.629105 
	C708.574585,173.023865 708.913391,173.418640 709.252258,173.813400 
	C704.309082,178.526855 699.365906,183.240295 694.136841,188.057129 
z"/>
<path fill="#CA01B4" opacity="1.000000" stroke="none" 
	d="
M400.091431,825.640503 
	C399.004730,825.053528 397.216980,824.055115 397.270599,823.167969 
	C397.524017,818.975281 398.104370,814.773743 399.018372,810.675659 
	C399.186340,809.922607 401.436249,809.633911 403.128113,809.148071 
	C402.433624,814.536926 401.336243,819.908630 400.091431,825.640503 
z"/>
<path fill="#CA01B4" opacity="1.000000" stroke="none" 
	d="
M373.530762,973.637451 
	C367.775024,970.448669 368.531708,963.618774 375.239014,960.151367 
	C374.993835,964.481934 374.365143,968.867798 373.530762,973.637451 
z"/>
<path fill="#CB00B7" opacity="1.000000" stroke="none" 
	d="
M602.702271,301.185364 
	C600.587952,301.159851 598.805115,301.159851 596.696899,301.159851 
	C597.792175,295.594025 601.274963,295.712433 605.630310,296.917572 
	C605.012817,298.404175 604.023254,299.807495 602.702271,301.185364 
z"/>
<path fill="#680298" opacity="1.000000" stroke="none" 
	d="
M663.820129,194.484192 
	C667.428101,192.310074 671.036133,190.135956 674.644104,187.961838 
	C674.917786,188.369873 675.191467,188.777908 675.465149,189.185928 
	C671.928894,191.506149 668.392639,193.826370 664.419678,195.766068 
	C663.928711,195.085083 663.874390,194.784637 663.820129,194.484192 
z"/>
<path fill="#CA01B4" opacity="1.000000" stroke="none" 
	d="
M404.061554,806.642090 
	C399.982361,804.047974 400.064880,802.804321 404.706421,800.102539 
	C404.778809,802.107788 404.499664,804.195557 404.061554,806.642090 
z"/>
<path fill="#6A019A" opacity="1.000000" stroke="none" 
	d="
M663.479980,194.579163 
	C663.874390,194.784637 663.928711,195.085083 664.064392,195.836060 
	C662.293396,197.787064 660.441040,199.287552 658.272156,200.870056 
	C657.677307,200.407501 657.398926,199.862946 657.083435,199.011841 
	C659.077454,197.361588 661.108704,196.017868 663.479980,194.579163 
z"/>
<path fill="#CA01B5" opacity="1.000000" stroke="none" 
	d="
M234.496872,607.080933 
	C235.557510,607.755798 236.359528,608.595947 237.161530,609.436035 
	C235.865143,609.656433 234.568771,609.876770 232.946716,609.959839 
	C233.160110,608.963684 233.699173,608.104858 234.496872,607.080933 
z"/>
<path fill="#CB00B7" opacity="1.000000" stroke="none" 
	d="
M456.375366,389.906982 
	C455.338226,389.467010 454.556549,388.895966 453.774872,388.324890 
	C454.984131,388.093048 456.193359,387.861206 457.693939,387.796753 
	C457.533783,388.568054 457.082306,389.171997 456.375366,389.906982 
z"/>
<path fill="#CA01B4" opacity="1.000000" stroke="none" 
	d="
M378.031769,947.634766 
	C377.073334,947.377319 376.262634,946.753235 375.451965,946.129150 
	C376.219147,945.482544 376.986328,944.835938 378.113037,944.168945 
	C378.374878,945.188354 378.277191,946.228210 378.031769,947.634766 
z"/>
<path fill="#CA01B4" opacity="1.000000" stroke="none" 
	d="
M396.467407,842.727600 
	C396.256165,842.407837 396.228394,841.816956 396.462982,841.192688 
	C396.700500,841.591675 396.675690,842.024109 396.467407,842.727600 
z"/>
<path fill="#6A019A" opacity="1.000000" stroke="none" 
	d="
M646.068604,209.600220 
	C645.885498,209.364441 646.030701,209.114761 646.563599,208.943146 
	C646.631104,209.141312 646.446411,209.329697 646.068604,209.600220 
z"/>
<path fill="#CA01B4" opacity="1.000000" stroke="none" 
	d="
M430.316528,576.127563 
	C431.641785,572.057495 433.149750,568.046448 434.983734,564.190552 
	C439.302246,555.111023 443.776245,546.105408 448.422424,536.816711 
	C449.755829,537.288086 450.763428,538.291016 451.969757,538.684204 
	C455.386169,539.797424 456.682495,542.726868 455.626495,545.334045 
	C453.317780,551.034058 450.487000,556.621826 447.099121,561.746094 
	C445.235504,564.564880 442.333435,566.408264 444.922119,570.250244 
	C445.400146,570.959778 444.994049,572.417236 444.683472,573.434021 
	C444.551086,573.867493 443.445923,574.454346 443.070892,574.294739 
	C438.487793,572.343872 435.703308,581.642639 430.316528,576.127563 
z"/>
<path fill="#CA01B4" opacity="1.000000" stroke="none" 
	d="
M407.747498,643.318298 
	C409.941589,635.115417 409.411713,625.586670 419.558136,622.206360 
	C420.496887,621.893677 421.584015,621.230286 422.385956,621.465881 
	C424.141846,621.981750 425.758759,622.970581 427.432434,623.766296 
	C426.036774,624.848694 424.776550,626.535950 423.216705,626.885315 
	C420.128387,627.576965 418.904205,628.436218 420.069153,631.914856 
	C421.145599,635.129333 421.654938,638.661133 421.651459,642.052429 
	C421.649872,643.593445 420.095856,645.492615 418.730774,646.586304 
	C416.784943,648.145386 414.365234,649.113098 411.629639,650.618530 
	C410.579803,648.658936 409.236786,646.152222 407.747498,643.318298 
z"/>
<path fill="#CA01B4" opacity="1.000000" stroke="none" 
	d="
M420.520020,598.006836 
	C421.553833,594.831970 422.979340,591.660767 424.610962,588.222717 
	C427.193512,588.641907 429.661133,589.117371 431.912170,590.092651 
	C433.267303,590.679688 435.158142,591.997803 435.216187,593.073303 
	C435.277649,594.211914 433.627380,596.230164 432.417206,596.503845 
	C428.660461,597.353027 424.757751,597.556519 420.520020,598.006836 
z"/>
<path fill="#CA01B4" opacity="1.000000" stroke="none" 
	d="
M436.310089,616.223633 
	C435.274780,616.794678 434.604095,617.290710 433.877502,617.683044 
	C432.228027,618.573730 430.550995,619.413330 428.885132,620.273682 
	C428.065277,618.003540 426.847107,615.771790 426.622894,613.444214 
	C426.534027,612.521851 428.805176,610.387573 429.738647,610.530029 
	C432.948822,611.019714 436.042664,612.271973 440.165741,613.535461 
	C438.698883,614.605896 437.674103,615.353760 436.310089,616.223633 
z"/>
<path fill="#CA01B4" opacity="1.000000" stroke="none" 
	d="
M446.665436,585.371338 
	C442.474823,584.018921 443.169312,581.056335 443.329376,578.279602 
	C443.786041,577.939636 444.242676,577.599731 444.699310,577.259766 
	C446.139099,578.904419 447.795380,580.423279 448.873505,582.278137 
	C449.159576,582.770325 447.668549,584.295288 446.665436,585.371338 
z"/>
<path fill="#CA01B4" opacity="1.000000" stroke="none" 
	d="
M415.063477,654.279419 
	C415.143677,653.928467 415.327789,653.708130 415.511902,653.487793 
	C415.683014,653.716614 415.854095,653.945374 416.025208,654.174194 
	C415.739288,654.252808 415.453339,654.331421 415.063477,654.279419 
z"/>
<path fill="#CA01B4" opacity="1.000000" stroke="none" 
	d="
M417.014099,659.968628 
	C417.255127,660.262634 417.332123,660.549622 417.409088,660.836548 
	C417.131042,660.825806 416.852966,660.815063 416.574951,660.804321 
	C416.666626,660.523438 416.758301,660.242493 417.014099,659.968628 
z"/>
<path fill="#CA01B4" opacity="1.000000" stroke="none" 
	d="
M406.176208,677.969116 
	C406.189545,678.324158 406.092651,678.578369 405.995758,678.832581 
	C405.805450,678.667236 405.615112,678.501953 405.424774,678.336609 
	C405.638519,678.180542 405.852234,678.024414 406.176208,677.969116 
z"/>
<path fill="#CA01B5" opacity="1.000000" stroke="none" 
	d="
M298.269958,568.406982 
	C297.933533,569.088745 297.550262,569.549438 297.166992,570.010132 
	C296.937897,569.655945 296.708801,569.301697 296.479706,568.947510 
	C297.060822,568.693604 297.641937,568.439697 298.269958,568.406982 
z"/>
<path fill="#CA01B5" opacity="1.000000" stroke="none" 
	d="
M297.193359,573.859253 
	C297.184937,574.040222 297.111725,574.148376 297.038513,574.256531 
	C296.954346,574.162048 296.870178,574.067566 296.785980,573.973083 
	C296.900177,573.910889 297.014343,573.848633 297.193359,573.859253 
z"/>
</svg>